<svg xmlns="http://www.w3.org/2000/svg" width="86.508" height="13.104" viewBox="0 0 86.508 13.104">
  <path id="Path_3" data-name="Path 3" d="M10.188-8.028A4.518,4.518,0,0,0,8.775-9.279a3.252,3.252,0,0,0-1.593-.459,2.806,2.806,0,0,0-1.53.432,3.028,3.028,0,0,0-1.08,1.2,3.683,3.683,0,0,0-.4,1.719,3.683,3.683,0,0,0,.4,1.719,3.1,3.1,0,0,0,1.08,1.206,2.763,2.763,0,0,0,1.53.441,3.551,3.551,0,0,0,1.539-.4A5.019,5.019,0,0,0,10.188-4.5l2.16,2.3A7.67,7.67,0,0,1,9.873-.414,6.832,6.832,0,0,1,7,.252,6.839,6.839,0,0,1,3.591-.6,6.192,6.192,0,0,1,1.206-2.97,6.7,6.7,0,0,1,.342-6.354a6.38,6.38,0,0,1,.882-3.321,6.263,6.263,0,0,1,2.43-2.331,7.124,7.124,0,0,1,3.474-.846,7.144,7.144,0,0,1,2.844.612A6.937,6.937,0,0,1,12.348-10.6ZM23,0l-.738-2.016H17.172L16.416,0H12.564l5.382-12.618H21.8L27,0ZM18.216-4.752h3.06L19.764-8.874Zm10.152-7.866h4.014l3.384,7,3.366-7h4.014V0H39.852V-7.488l-2.88,6.246h-2.43l-2.88-6.246V0H28.368ZM54.954,0l-.738-2.016H49.122L48.366,0H44.514L49.9-12.618h3.852L58.95,0ZM50.166-4.752h3.06L51.714-8.874ZM67.716,0,66.042-3.4h-1.98V0H60.318V-12.618H66.2a5.95,5.95,0,0,1,3.933,1.17,4.083,4.083,0,0,1,1.395,3.312,4.987,4.987,0,0,1-.549,2.4,4.065,4.065,0,0,1-1.575,1.611L71.964,0ZM64.062-6.282H66.2a1.786,1.786,0,0,0,1.305-.45,1.734,1.734,0,0,0,.459-1.3A1.678,1.678,0,0,0,67.509-9.3,1.808,1.808,0,0,0,66.2-9.738H64.062Zm15.912-6.57a7.317,7.317,0,0,1,3.519.846,6.279,6.279,0,0,1,2.466,2.331,6.364,6.364,0,0,1,.891,3.339,6.492,6.492,0,0,1-.891,3.375A6.3,6.3,0,0,1,83.493-.6a7.255,7.255,0,0,1-3.519.855A7.24,7.24,0,0,1,76.446-.6a6.319,6.319,0,0,1-2.457-2.358A6.492,6.492,0,0,1,73.1-6.336a6.364,6.364,0,0,1,.891-3.339,6.3,6.3,0,0,1,2.457-2.331A7.3,7.3,0,0,1,79.974-12.852Zm.054,3.114a2.824,2.824,0,0,0-1.539.45,3.262,3.262,0,0,0-1.134,1.233,3.6,3.6,0,0,0-.423,1.737,3.647,3.647,0,0,0,.423,1.746,3.316,3.316,0,0,0,1.134,1.251,2.784,2.784,0,0,0,1.539.459,2.669,2.669,0,0,0,1.5-.459A3.176,3.176,0,0,0,82.62-4.563a3.833,3.833,0,0,0,.4-1.755,3.793,3.793,0,0,0-.4-1.737,3.134,3.134,0,0,0-1.08-1.233A2.693,2.693,0,0,0,80.028-9.738Z" transform="translate(-0.342 12.852)"/>
</svg>
